# xmcd
#
# Track frame offsets: 
#        150
#        28795
#        45635
#        65503
#        93048
#        126795
#        155230
#        171980
#
# Disc length: 2687 seconds
#
# Revision: 4
# Processed by: cddbd v1.5.2PL0 Copyright (c) Steve Scherf et al.
# Submitted via: ExactAudioCopy v0.95b4
#
DISCID=680a7d08
DTITLE=Alex de Grassi - Altiplano
DYEAR=1987
DGENRE=New Age
TTITLE0=Altiplano
TTITLE1=First Time
TTITLE2=Doumbek
TTITLE3=Digital Interlude
TTITLE4=Fat Boy
TTITLE5=Lila
TTITLE6=McCormick
TTITLE7=MTY
EXTD=YEAR: 1987
EXTT0=
EXTT1=
EXTT2=
EXTT3=
EXTT4=
EXTT5=
EXTT6=
EXTT7=
PLAYORDER=
